<?xml version="1.0" encoding="utf-8"?>
<!-- Generator: Adobe Illustrator 19.1.0, SVG Export Plug-In . SVG Version: 6.00 Build 0)  -->
<svg version="1.1" id="Layer_1" xmlns="http://www.w3.org/2000/svg" xmlns:xlink="http://www.w3.org/1999/xlink" x="0px" y="0px"
	 viewBox="0 0 187.5 131.8" style="enable-background:new 0 0 187.5 131.8;" xml:space="preserve" width="100%">
<style type="text/css">
	.st0{fill:url(#SVGID_1_);}
	.st1{opacity:0.65;fill:url(#SVGID_2_);}
	.st2{fill:#FFD88C;}
	.st3{fill:url(#SVGID_3_);}
	.st4{fill:url(#SVGID_4_);}
	.st5{fill:url(#SVGID_5_);}
	.st6{fill:url(#SVGID_6_);stroke:#000000;stroke-miterlimit:10;}
	.st7{opacity:0.7;fill:#5E362C;}
	.st8{fill:url(#SVGID_7_);}
	.st9{fill:#FFFFFF;}
	.st10{fill:url(#SVGID_8_);}
	.st11{opacity:0.65;fill:url(#SVGID_9_);}
	.st12{fill:url(#SVGID_10_);}
	.st13{fill:url(#SVGID_11_);}
	.st14{fill:url(#SVGID_12_);}
</style>
<g>
	<g>
		<radialGradient id="SVGID_1_" cx="131.5492" cy="66.4251" r="58.4243" gradientUnits="userSpaceOnUse">
			<stop  offset="0.1017" style="stop-color:#FDEF48"/>
			<stop  offset="0.7065" style="stop-color:#FECF1C"/>
			<stop  offset="0.8376" style="stop-color:#F8A81B"/>
			<stop  offset="0.9493" style="stop-color:#F59D21"/>
			<stop  offset="1" style="stop-color:#F59222"/>
		</radialGradient>
		<path class="st0" d="M131.5,23.9c-1.4,0,21.8-20.9,20.1-20.9C138,3,78.6,25.6,78.6,74.3c0,0.4,0,0.8,0,1.2c0,0.4,0,0.9,0,1.3
			c0,29.3,23.7,53,53,53s53-23.7,53-53S160.8,23.9,131.5,23.9z"/>
		
			<linearGradient id="SVGID_2_" gradientUnits="userSpaceOnUse" x1="-203.9919" y1="-133.1744" x2="-113.6909" y2="-133.1744" gradientTransform="matrix(-1.346900e-10 -1 1 -1.346900e-10 272.5564 -81.8813)">
			<stop  offset="5.851403e-02" style="stop-color:#FFF243;stop-opacity:0"/>
			<stop  offset="0.4555" style="stop-color:#F79C1F"/>
			<stop  offset="0.6577" style="stop-color:#FFFFFF"/>
		</linearGradient>
		<circle class="st1" cx="139.4" cy="77" r="45.2"/>
		<g>
			<path class="st2" d="M131.5,120.6c-21.3,0-31.3-18.5-32-19.9c-1.1-1.7-3.4-5.7-2-7.8c0.7-1,1.7-1.5,2.8-1.5
				c1.7,0,3.4,1.2,3.8,1.5c1,0.5,11.2,6.1,26.6,6.1c9.7,0,19.5-2.2,29-6.4c0.4-0.3,1.3-0.8,2.5-0.8c0.8,0,2,0.2,3,1.4
				c0.3,0.3,0.8,1,0.7,2.3c-0.2,1.5-1.1,3.3-2.8,5.6C162.3,102.9,152.5,120.6,131.5,120.6z"/>
		</g>
		<g>
			<linearGradient id="SVGID_3_" gradientUnits="userSpaceOnUse" x1="131.4922" y1="119.2424" x2="131.4922" y2="92.7712">
				<stop  offset="0.211" style="stop-color:#BD6730"/>
				<stop  offset="0.4389" style="stop-color:#9D5625"/>
				<stop  offset="1" style="stop-color:#683413"/>
			</linearGradient>
			<path class="st3" d="M103.3,94.1c0,0,24.3,14.4,57.2-0.3c0,0,2-1.6,3.8,0.4c0,0,1.5,1.1-2.3,6.2c0,0-9.1,18.8-30.5,18.8
				S100.7,100,100.7,100s-3.1-4.7-2-6.3C100.1,91.4,103.3,94.1,103.3,94.1z"/>
		</g>
		<g>
			<circle class="st2" cx="153.2" cy="70.1" r="18.7"/>
		</g>
		<g>
			<path class="st2" d="M120.8,76.3c-1,0-1.8-0.3-1.9-0.4l-0.1-0.1c-3.5-1.9-7.2-2.8-11-2.8c-6.3,0-10.8,2.6-10.8,2.7
				c-0.1,0.1-0.9,0.6-1.9,0.6h0c-0.8,0-1.6-0.3-2.1-1c-1-1.2-0.8-2.7-0.2-3.7c0.6-1.4,4.7-10.5,15.4-10.8c0.1,0,0.3,0,0.4,0
				c9.7,0,14.2,9.2,14.8,10.5c0.9,1.3,1.2,3.1-0.1,4.1C122.6,76,121.7,76.3,120.8,76.3z"/>
		</g>
		<g>
			<radialGradient id="SVGID_4_" cx="153.1809" cy="70.0982" r="19.4903" gradientUnits="userSpaceOnUse">
				<stop  offset="0.5547" style="stop-color:#FFFFFF"/>
				<stop  offset="0.8555" style="stop-color:#999B9E"/>
				<stop  offset="0.9518" style="stop-color:#000000"/>
			</radialGradient>
			<circle class="st4" cx="153.2" cy="70.1" r="17.5"/>
		</g>
		<g>
			<linearGradient id="SVGID_5_" gradientUnits="userSpaceOnUse" x1="108.0961" y1="74.8528" x2="108.0961" y2="62.171">
				<stop  offset="0.4389" style="stop-color:#9D5625"/>
				<stop  offset="0.8831" style="stop-color:#683413"/>
			</linearGradient>
			<path class="st5" d="M96.2,74.5c0,0,10.8-6.5,23.2,0.1c0,0,1.7,0.7,2.9-0.3c0.9-0.8-0.3-2.4-0.3-2.4s-4.4-10-13.9-9.8
				c-10.7,0.3-14.2,10-14.2,10s-0.8,1.2,0,2.1C94.8,75.3,96.2,74.5,96.2,74.5z"/>
		</g>
		<linearGradient id="SVGID_6_" gradientUnits="userSpaceOnUse" x1="153.1809" y1="75.8576" x2="153.1809" y2="64.3389">
			<stop  offset="0" style="stop-color:#6D6E71"/>
			<stop  offset="0.9885" style="stop-color:#000000"/>
		</linearGradient>
		<circle class="st6" cx="153.2" cy="70.1" r="5.8"/>
		<g>
			<rect x="129" y="101.2" class="st7" width="3.1" height="15.4"/>
			<radialGradient id="SVGID_7_" cx="130.436" cy="116.0062" r="18.1302" gradientUnits="userSpaceOnUse">
				<stop  offset="0" style="stop-color:#F6BCD5"/>
				<stop  offset="0.1343" style="stop-color:#F4B8D1"/>
				<stop  offset="0.2893" style="stop-color:#F0ABC6"/>
				<stop  offset="0.4545" style="stop-color:#EB99B6"/>
				<stop  offset="0.6269" style="stop-color:#E480A2"/>
				<stop  offset="0.8048" style="stop-color:#DD5E8B"/>
				<stop  offset="0.985" style="stop-color:#D52472"/>
				<stop  offset="1" style="stop-color:#D41C70"/>
			</radialGradient>
			<path class="st8" d="M143.3,115.7l0-0.2l0-15.4c-1.5,0.2-6,1.1-12.4,1.1v12.1H130v-12.1c-6.3,0-10.4-1-11.8-1.1l0,15.8
				c0,0.1,0,0.2,0,0.2c0,6.9,5.7,12.4,12.6,12.4c6.9,0,12.6-5.6,12.6-12.4C143.3,116,143.3,115.9,143.3,115.7z"/>
		</g>
		<circle class="st9" cx="156.3" cy="66.4" r="2.4"/>
	</g>
	<radialGradient id="SVGID_8_" cx="55.9027" cy="66.4251" r="58.4243" gradientUnits="userSpaceOnUse">
		<stop  offset="0.1017" style="stop-color:#FDEF48"/>
		<stop  offset="0.7065" style="stop-color:#FECF1C"/>
		<stop  offset="0.8376" style="stop-color:#F8A81B"/>
		<stop  offset="0.9493" style="stop-color:#F59D21"/>
		<stop  offset="1" style="stop-color:#F59222"/>
	</radialGradient>
	<path class="st10" d="M55.9,23.9C54.5,23.9,77.7,3,76,3C62.4,3,2.9,25.6,2.9,74.3c0,0.4,0,0.8,0,1.2c0,0.4,0,0.9,0,1.3
		c0,29.3,23.7,53,53,53s53-23.7,53-53S85.2,23.9,55.9,23.9z"/>
	
		<linearGradient id="SVGID_9_" gradientUnits="userSpaceOnUse" x1="-203.9919" y1="-208.8208" x2="-113.6909" y2="-208.8208" gradientTransform="matrix(-1.346900e-10 -1 1 -1.346900e-10 272.5564 -81.8813)">
		<stop  offset="5.851403e-02" style="stop-color:#FFF243;stop-opacity:0"/>
		<stop  offset="0.4555" style="stop-color:#F79C1F"/>
		<stop  offset="0.6577" style="stop-color:#FFFFFF"/>
	</linearGradient>
	<circle class="st11" cx="63.7" cy="77" r="45.2"/>
	<g>
		<path class="st2" d="M55.8,120.6c-21.3,0-31.3-18.5-32-19.9c-1.1-1.7-3.4-5.7-2-7.8c0.7-1,1.7-1.5,2.8-1.5c1.7,0,3.4,1.2,3.8,1.5
			c1,0.5,11.2,6.1,26.6,6.1c9.7,0,19.5-2.2,29-6.4c0.4-0.3,1.3-0.8,2.5-0.8c0.8,0,2,0.2,3,1.4c0.3,0.3,0.8,1,0.7,2.3
			c-0.2,1.5-1.1,3.3-2.8,5.6C86.6,102.9,76.9,120.6,55.8,120.6z"/>
	</g>
	<g>
		<linearGradient id="SVGID_10_" gradientUnits="userSpaceOnUse" x1="55.8457" y1="119.2424" x2="55.8457" y2="92.7712">
			<stop  offset="0.211" style="stop-color:#BD6730"/>
			<stop  offset="0.4389" style="stop-color:#9D5625"/>
			<stop  offset="1" style="stop-color:#683413"/>
		</linearGradient>
		<path class="st12" d="M27.7,94.1c0,0,24.3,14.4,57.2-0.3c0,0,2-1.6,3.8,0.4c0,0,1.5,1.1-2.3,6.2c0,0-9.1,18.8-30.5,18.8
			S25,100,25,100s-3.1-4.7-2-6.3C24.5,91.4,27.7,94.1,27.7,94.1z"/>
	</g>
	<g>
		<g>
			<path class="st2" d="M48.6,81c-0.7,0-1.8-0.3-2.7-1.8c0,0-3.3-4.7-7.1-4.7c-3.3,0-6.3,3.4-7.2,4.7c-1,1.5-2,1.8-2.7,1.8
				c-1.3,0-2.3-1-2.8-2.7l0-0.2v-2.3c0-8.7,5.7-15.8,12.7-15.8s12.7,7.1,12.7,15.8v2.3l0,0.2C50.7,80.8,49,81,48.6,81L48.6,81z"/>
		</g>
		<g>
			<linearGradient id="SVGID_11_" gradientUnits="userSpaceOnUse" x1="38.6702" y1="79.7688" x2="38.6702" y2="61.4195">
				<stop  offset="0.4389" style="stop-color:#9D5625"/>
				<stop  offset="0.8831" style="stop-color:#683413"/>
			</linearGradient>
			<path class="st13" d="M38.7,61.4c-6.3,0-11.4,6.5-11.4,14.5c0,2.1,0,2.1,0,2.1c0.6,2.1,2,2.3,3.2,0.5c0,0,3.6-5.3,8.2-5.3
				s8.2,5.3,8.2,5.3c1.2,1.8,2.7,1.6,3.2-0.5c0,0,0,0,0-2.1C50.1,67.9,45,61.4,38.7,61.4z"/>
		</g>
		<g>
			<path class="st2" d="M83.2,81c-0.7,0-1.8-0.3-2.7-1.8c0,0-3.3-4.7-7.1-4.7c-3.3,0-6.3,3.4-7.2,4.7c-1,1.5-2,1.8-2.7,1.8
				c-1.3,0-2.3-1-2.8-2.7l0-0.2v-2.3c0-8.7,5.7-15.8,12.7-15.8c7,0,12.7,7.1,12.7,15.8v2.3l0,0.2C85.3,80.8,83.7,81,83.2,81L83.2,81
				z"/>
		</g>
		<g>
			<linearGradient id="SVGID_12_" gradientUnits="userSpaceOnUse" x1="73.2905" y1="79.7688" x2="73.2905" y2="61.4195">
				<stop  offset="0.4389" style="stop-color:#9D5625"/>
				<stop  offset="0.8831" style="stop-color:#683413"/>
			</linearGradient>
			<path class="st14" d="M73.3,61.4c-6.3,0-11.4,6.5-11.4,14.5c0,2.1,0,2.1,0,2.1c0.6,2.1,2,2.3,3.2,0.5c0,0,3.6-5.3,8.2-5.3
				s8.2,5.3,8.2,5.3c1.2,1.8,2.7,1.6,3.2-0.5c0,0,0,0,0-2.1C84.7,67.9,79.6,61.4,73.3,61.4z"/>
		</g>
	</g>
</g>
</svg>
