<?xml version="1.0" encoding="utf-8"?>
<!-- Generator: Adobe Illustrator 19.1.0, SVG Export Plug-In . SVG Version: 6.00 Build 0)  -->
<svg version="1.1" id="Layer_1" xmlns="http://www.w3.org/2000/svg" xmlns:xlink="http://www.w3.org/1999/xlink" x="0px" y="0px"
	 viewBox="0 0 115.7 134.5" style="enable-background:new 0 0 115.7 134.5;" xml:space="preserve">
<style type="text/css">
	.st0{fill:url(#SVGID_1_);}
	.st1{opacity:0.65;fill:url(#SVGID_2_);}
	.st2{fill:#FFD88C;}
	.st3{fill:url(#SVGID_3_);}
	.st4{fill:url(#SVGID_4_);}
	.st5{fill:url(#SVGID_5_);}
	.st6{fill:url(#SVGID_6_);}
	.st7{fill:url(#SVGID_7_);}
</style>
<g>
	<radialGradient id="SVGID_1_" cx="57.9787" cy="67.1259" r="58.4243" gradientUnits="userSpaceOnUse">
		<stop  offset="0.1017" style="stop-color:#FDEF48"/>
		<stop  offset="0.7065" style="stop-color:#FECF1C"/>
		<stop  offset="0.8376" style="stop-color:#F8A81B"/>
		<stop  offset="0.9493" style="stop-color:#F59D21"/>
		<stop  offset="1" style="stop-color:#F59222"/>
	</radialGradient>
	<path class="st0" d="M58,24.6c-1.4,0,21.8-20.9,20.1-20.9C64.5,3.7,5,26.3,5,75c0,0.4,0,0.8,0,1.2c0,0.4,0,0.9,0,1.3
		c0,29.3,23.7,53,53,53s53-23.7,53-53S87.2,24.6,58,24.6z"/>
	
		<linearGradient id="SVGID_2_" gradientUnits="userSpaceOnUse" x1="-263.1707" y1="-228.4532" x2="-172.8697" y2="-228.4532" gradientTransform="matrix(-1.346900e-10 -1 1 -1.346900e-10 294.2647 -140.3592)">
		<stop  offset="5.851403e-02" style="stop-color:#FFF243;stop-opacity:0"/>
		<stop  offset="0.4555" style="stop-color:#F79C1F"/>
		<stop  offset="0.6577" style="stop-color:#FFFFFF"/>
	</linearGradient>
	<circle class="st1" cx="65.8" cy="77.7" r="45.2"/>
	<g>
		<g>
			<path class="st2" d="M46.7,83.1c-1.1,0-2.2-0.4-3-1.2l-5.3-5.3l-5.3,5.3c-0.8,0.8-1.9,1.2-3,1.2c-1.1,0-2.2-0.4-3-1.2l-0.3-0.3
				c-0.8-0.8-1.2-1.9-1.2-3s0.4-2.2,1.2-3l5.3-5.3l-5.3-5.3c-0.8-0.8-1.2-1.9-1.2-3s0.4-2.2,1.2-3l0.3-0.3c0.8-0.8,1.9-1.2,3-1.2
				c1.1,0,2.2,0.4,3,1.2l5.3,5.3l5.3-5.3c0.8-0.8,1.9-1.2,3-1.2s2.2,0.4,3,1.2l0.3,0.3c1.7,1.7,1.7,4.4,0,6l-5.3,5.3l5.3,5.3
				c1.7,1.7,1.7,4.4,0,6l-0.3,0.3C48.9,82.7,47.9,83.1,46.7,83.1z"/>
			<path class="st2" d="M84,83.1c-1.1,0-2.2-0.4-3-1.2l-5.3-5.3l-5.3,5.3c-0.8,0.8-1.9,1.2-3,1.2s-2.2-0.4-3-1.2l-0.3-0.3
				c-0.8-0.8-1.2-1.9-1.2-3s0.4-2.2,1.2-3l5.3-5.3l-5.3-5.3c-0.8-0.8-1.2-1.9-1.2-3s0.4-2.2,1.2-3l0.3-0.3c0.8-0.8,1.9-1.2,3-1.2
				s2.2,0.4,3,1.2l5.3,5.3l5.3-5.3c0.8-0.8,1.9-1.2,3-1.2c1.1,0,2.2,0.4,3,1.2l0.3,0.3c0.8,0.8,1.2,1.9,1.2,3s-0.4,2.2-1.2,3
				l-5.3,5.3l5.3,5.3c0.8,0.8,1.2,1.9,1.2,3s-0.4,2.2-1.2,3l-0.3,0.3C86.3,82.7,85.2,83.1,84,83.1z"/>
			<linearGradient id="SVGID_3_" gradientUnits="userSpaceOnUse" x1="38.3921" y1="81.6855" x2="38.3921" y2="58.6894">
				<stop  offset="0.211" style="stop-color:#BD6730"/>
				<stop  offset="0.4389" style="stop-color:#9D5625"/>
				<stop  offset="1" style="stop-color:#683413"/>
			</linearGradient>
			<path class="st3" d="M42.7,70.2l6.3-6.3c1.1-1.1,1.1-2.9,0-4l-0.3-0.3c-1.1-1.1-2.9-1.1-4,0l-6.3,6.3l-6.3-6.3
				c-1.1-1.1-2.9-1.1-4,0l-0.3,0.3c-1.1,1.1-1.1,2.9,0,4l6.3,6.3l-6.3,6.3c-1.1,1.1-1.1,2.9,0,4l0.3,0.3c1.1,1.1,2.9,1.1,4,0
				l6.3-6.3l6.3,6.3c1.1,1.1,2.9,1.1,4,0l0.3-0.3c1.1-1.1,1.1-2.9,0-4L42.7,70.2z"/>
			<linearGradient id="SVGID_4_" gradientUnits="userSpaceOnUse" x1="75.7254" y1="81.6855" x2="75.7254" y2="58.6894">
				<stop  offset="0.211" style="stop-color:#BD6730"/>
				<stop  offset="0.4389" style="stop-color:#9D5625"/>
				<stop  offset="1" style="stop-color:#683413"/>
			</linearGradient>
			<path class="st4" d="M80.1,70.2l6.3-6.3c1.1-1.1,1.1-2.9,0-4l-0.3-0.3c-1.1-1.1-2.9-1.1-4,0l-6.3,6.3l-6.3-6.3
				c-1.1-1.1-2.9-1.1-4,0l-0.3,0.3c-1.1,1.1-1.1,2.9,0,4l6.3,6.3l-6.3,6.3c-1.1,1.1-1.1,2.9,0,4l0.3,0.3c1.1,1.1,2.9,1.1,4,0
				l6.3-6.3l6.3,6.3c1.1,1.1,2.9,1.1,4,0l0.3-0.3c1.1-1.1,1.1-2.9,0-4L80.1,70.2z"/>
		</g>
		<g>
			<path class="st2" d="M87.8,52c0.7-0.1,1.4-0.4,1.8-1c0.9-1.2,0.7-2.8-0.4-3.8c-5.8-4.6-11.5-5.1-15.2-4.8c-2,0.2-3.3,0.6-3.5,0.7
				c-1.4,0.5-2.1,2-1.6,3.4c0.4,1.2,1.6,1.9,2.8,1.8c0.2,0,0.4-0.1,0.6-0.1c0,0,0.9-0.3,2.2-0.4c2.8-0.3,7,0.1,11.3,3.6
				c0.4,0.3,0.8,0.5,1.3,0.6C87.4,52,87.6,52,87.8,52L87.8,52z"/>
			
				<linearGradient id="SVGID_5_" gradientUnits="userSpaceOnUse" x1="61.0501" y1="316.0703" x2="80.3528" y2="316.0703" gradientTransform="matrix(0.9876 0.1568 -0.1568 0.9876 59.2559 -276.4693)">
				<stop  offset="0.211" style="stop-color:#BD6730"/>
				<stop  offset="0.4389" style="stop-color:#9D5625"/>
				<stop  offset="1" style="stop-color:#683413"/>
			</linearGradient>
			<path class="st5" d="M87.2,50.7c-0.2,0-0.5-0.1-0.7-0.3c-7.4-5.9-14.5-3.5-14.8-3.4c-0.7,0.3-1.5-0.1-1.8-0.9
				c-0.3-0.7,0.1-1.5,0.8-1.8c0.4-0.1,8.8-3.1,17.5,3.9c0.6,0.5,0.7,1.4,0.2,2C88.2,50.6,87.7,50.8,87.2,50.7z"/>
		</g>
		<g>
			<path class="st2" d="M26.7,52c-0.7-0.1-1.4-0.4-1.8-1c-0.9-1.2-0.7-2.8,0.4-3.8c5.8-4.6,11.5-5.1,15.2-4.8c2,0.2,3.3,0.6,3.5,0.7
				c1.4,0.5,2.1,2,1.6,3.4c-0.4,1.2-1.6,1.9-2.8,1.8c-0.2,0-0.4-0.1-0.6-0.1c0,0-0.9-0.3-2.2-0.4c-2.8-0.3-7,0.1-11.3,3.6
				c-0.4,0.3-0.8,0.5-1.3,0.6C27.1,52,26.9,52,26.7,52L26.7,52z"/>
			
				<linearGradient id="SVGID_6_" gradientUnits="userSpaceOnUse" x1="3115.1484" y1="-168.8779" x2="3134.4512" y2="-168.8779" gradientTransform="matrix(-0.9876 0.1568 0.1568 0.9876 3147.6218 -276.4693)">
				<stop  offset="0.211" style="stop-color:#BD6730"/>
				<stop  offset="0.4389" style="stop-color:#9D5625"/>
				<stop  offset="1" style="stop-color:#683413"/>
			</linearGradient>
			<path class="st6" d="M27.3,50.7c0.2,0,0.5-0.1,0.7-0.3c7.4-5.9,14.5-3.5,14.8-3.4c0.7,0.3,1.5-0.1,1.8-0.9
				c0.3-0.7-0.1-1.5-0.8-1.8c-0.4-0.1-8.8-3.1-17.5,3.9c-0.6,0.5-0.7,1.4-0.2,2C26.3,50.6,26.8,50.8,27.3,50.7z"/>
		</g>
		<g>
			<path class="st2" d="M56.7,120.3c-8.5,0-15.4-6.9-15.4-15.4s6.9-15.4,15.4-15.4s15.4,6.9,15.4,15.4S65.2,120.3,56.7,120.3z"/>
			<linearGradient id="SVGID_7_" gradientUnits="userSpaceOnUse" x1="56.7176" y1="119.0664" x2="56.7176" y2="90.7407">
				<stop  offset="0.211" style="stop-color:#BD6730"/>
				<stop  offset="0.4389" style="stop-color:#9D5625"/>
				<stop  offset="1" style="stop-color:#683413"/>
			</linearGradient>
			<circle class="st7" cx="56.7" cy="104.9" r="14.2"/>
		</g>
	</g>
</g>
</svg>
