<svg xmlns="http://www.w3.org/2000/svg" xmlns:xlink="http://www.w3.org/1999/xlink" preserveAspectRatio="xMidYMid" width="105" height="26" viewBox="0 0 105 26">
  <defs>
    <style>
      .cls-1 {
        fill: #fff;
        fill-rule: evenodd;
      }
    </style>
  </defs>
  <path d="M104.463,9.872 L104.457,8.934 L104.155,9.546 L103.942,9.548 L103.632,8.941 L103.638,9.878 L103.326,9.880 L103.313,8.273 L103.621,8.271 L104.046,9.136 L104.453,8.262 L104.760,8.261 L104.776,9.869 L104.463,9.872 ZM102.431,8.921 L102.619,8.948 C102.758,8.964 102.859,9.006 102.929,9.067 C103.009,9.146 103.051,9.259 103.055,9.407 C103.055,9.560 102.999,9.680 102.888,9.766 C102.778,9.856 102.638,9.899 102.465,9.900 C102.215,9.903 102.018,9.833 101.878,9.693 L102.077,9.488 C102.170,9.577 102.299,9.622 102.466,9.621 C102.655,9.620 102.748,9.552 102.746,9.420 C102.746,9.358 102.732,9.316 102.700,9.287 C102.668,9.257 102.619,9.237 102.554,9.228 L102.362,9.204 C102.077,9.167 101.935,9.019 101.933,8.759 C101.933,8.613 101.982,8.495 102.081,8.403 C102.181,8.314 102.316,8.267 102.485,8.266 C102.702,8.264 102.874,8.325 103.006,8.449 L102.807,8.648 C102.732,8.573 102.624,8.538 102.479,8.539 C102.401,8.539 102.340,8.560 102.298,8.599 C102.254,8.636 102.235,8.686 102.235,8.745 C102.235,8.792 102.253,8.830 102.286,8.861 C102.319,8.893 102.369,8.914 102.431,8.921 ZM101.306,17.515 C100.735,18.122 99.791,18.660 98.416,18.660 C97.046,18.660 96.118,18.122 95.545,17.515 C94.708,16.635 94.494,15.577 94.494,13.875 C94.494,12.187 94.708,11.131 95.545,10.251 C96.118,9.643 97.046,9.105 98.416,9.105 C99.791,9.105 100.735,9.643 101.306,10.251 C102.144,11.131 102.359,12.187 102.359,13.875 C102.359,15.577 102.144,16.635 101.306,17.515 ZM99.504,11.615 C99.237,11.346 98.881,11.202 98.416,11.202 C97.954,11.202 97.614,11.346 97.348,11.615 C96.867,12.099 96.813,12.905 96.813,13.875 C96.813,14.841 96.867,15.666 97.348,16.150 C97.614,16.419 97.954,16.564 98.416,16.564 C98.881,16.564 99.237,16.419 99.504,16.150 C99.986,15.666 100.038,14.841 100.038,13.875 C100.038,12.905 99.986,12.099 99.504,11.615 ZM93.569,11.736 C93.499,11.802 93.392,11.802 93.323,11.733 L93.323,11.722 L93.319,11.727 C92.957,11.368 92.654,11.171 92.079,11.171 C91.340,11.171 90.572,11.841 90.572,12.554 L90.572,18.338 C90.572,18.425 90.501,18.498 90.415,18.498 L88.588,18.498 C88.499,18.498 88.427,18.425 88.427,18.338 L88.427,9.266 C88.427,9.181 88.499,9.110 88.588,9.110 L90.415,9.110 C90.501,9.110 90.572,9.181 90.572,9.266 L90.572,9.970 C91.040,9.461 91.887,9.133 92.844,9.133 C93.759,9.133 94.397,9.390 95.042,10.035 L95.035,10.042 L95.050,10.038 C95.115,10.103 95.117,10.212 95.050,10.278 L93.569,11.736 ZM86.106,18.479 C84.276,18.479 83.457,17.132 83.457,15.798 L83.457,10.966 L82.579,10.966 C82.492,10.966 82.421,10.895 82.421,10.808 L82.421,9.412 C82.421,9.323 82.492,9.253 82.579,9.253 L83.457,9.253 L83.457,7.154 C83.457,7.066 83.530,6.993 83.618,6.993 C83.623,6.993 85.446,6.497 85.446,6.497 C85.530,6.499 85.600,6.570 85.600,6.659 L85.600,9.253 L87.196,9.253 C87.283,9.253 87.355,9.323 87.355,9.412 L87.355,10.808 C87.355,10.895 87.283,10.966 87.196,10.966 L85.600,10.966 L85.600,15.709 C85.600,16.312 85.878,16.606 86.444,16.606 L87.196,16.606 C87.283,16.606 87.355,16.678 87.355,16.765 L87.355,18.320 C87.355,18.407 87.283,18.479 87.196,18.479 L86.106,18.479 ZM79.365,7.639 C79.279,7.639 79.207,7.566 79.207,7.480 L79.207,5.920 C79.207,5.832 79.279,5.761 79.365,5.761 L81.303,5.761 C81.388,5.761 81.459,5.832 81.459,5.920 L81.459,7.480 C81.459,7.566 81.388,7.639 81.303,7.639 L79.365,7.639 ZM76.087,18.470 C76.004,18.470 75.896,18.409 75.851,18.337 L71.057,10.599 C71.011,10.527 70.974,10.535 70.974,10.622 L70.974,18.312 C70.974,18.401 70.904,18.470 70.818,18.470 L68.684,18.470 C68.601,18.470 68.530,18.401 68.530,18.312 L68.530,5.587 C68.530,5.502 68.601,5.434 68.684,5.434 L70.554,5.434 C70.641,5.434 70.748,5.493 70.795,5.565 L75.589,13.283 C75.633,13.356 75.669,13.346 75.669,13.260 L75.669,5.587 C75.669,5.502 75.738,5.434 75.824,5.434 L77.959,5.434 C78.046,5.434 78.116,5.502 78.116,5.587 L78.116,18.312 C78.116,18.401 78.046,18.470 77.959,18.470 L76.087,18.470 ZM66.090,18.479 C64.259,18.479 63.442,17.132 63.442,15.798 L63.442,10.966 L62.564,10.966 C62.475,10.966 62.405,10.895 62.405,10.808 L62.405,9.412 C62.405,9.323 62.475,9.253 62.564,9.253 L63.442,9.253 L63.442,7.154 C63.442,7.066 63.514,6.993 63.603,6.993 C63.608,6.993 65.430,6.497 65.430,6.497 C65.513,6.499 65.585,6.570 65.585,6.659 L65.585,9.253 L67.180,9.253 C67.267,9.253 67.339,9.323 67.339,9.412 L67.339,10.808 C67.339,10.895 67.267,10.966 67.180,10.966 L65.585,10.966 L65.585,15.709 C65.585,16.312 65.862,16.606 66.426,16.606 L67.180,16.606 C67.267,16.606 67.339,16.678 67.339,16.765 L67.339,18.320 C67.339,18.407 67.267,18.479 67.180,18.479 L66.090,18.479 ZM60.185,18.479 C60.096,18.479 60.027,18.407 60.027,18.321 L60.027,12.794 C60.027,11.608 59.422,10.930 58.360,10.930 C57.284,10.930 56.640,11.628 56.640,12.794 L56.640,18.321 C56.640,18.407 56.571,18.479 56.482,18.479 L54.658,18.479 C54.569,18.479 54.499,18.407 54.499,18.321 L54.499,9.249 C54.499,9.164 54.569,9.091 54.658,9.091 L56.447,9.091 C56.535,9.091 56.607,9.164 56.607,9.249 L56.607,9.795 L56.638,9.766 C57.249,9.255 58.018,8.985 58.862,8.985 C59.808,8.985 60.620,9.285 61.208,9.852 C61.873,10.501 62.169,11.325 62.169,12.526 L62.169,18.321 C62.169,18.407 62.097,18.479 62.011,18.479 L60.185,18.479 ZM47.835,14.473 L47.835,14.493 C47.899,15.892 48.676,16.695 49.973,16.695 C50.989,16.695 51.475,16.397 52.062,15.812 C52.121,15.750 52.219,15.749 52.281,15.808 L53.446,16.900 C53.475,16.928 53.494,16.970 53.497,17.012 C53.497,17.055 53.479,17.097 53.448,17.129 C52.545,18.028 51.645,18.590 49.937,18.590 C47.205,18.590 45.699,16.880 45.699,13.778 C45.699,10.823 47.234,8.985 49.703,8.985 C52.137,8.985 53.710,10.760 53.710,13.510 L53.710,14.315 C53.710,14.402 53.638,14.473 53.550,14.473 L47.835,14.473 ZM51.574,12.865 C51.549,12.460 51.493,12.208 51.346,11.870 C51.071,11.215 50.456,10.823 49.703,10.823 C48.939,10.823 48.320,11.215 48.044,11.870 C47.906,12.191 47.855,12.425 47.831,12.865 L47.831,12.884 L51.574,12.884 L51.574,12.865 ZM42.941,7.622 C42.853,7.622 42.781,7.549 42.781,7.463 L42.781,5.904 C42.781,5.815 42.853,5.743 42.941,5.743 L44.878,5.743 C44.964,5.743 45.035,5.815 45.035,5.904 L45.035,7.463 C45.035,7.549 44.964,7.622 44.878,7.622 L42.941,7.622 ZM38.668,18.588 C37.730,18.588 37.056,18.351 36.479,17.816 L36.449,17.790 L36.449,21.989 C36.449,22.076 36.376,22.147 36.288,22.147 L34.465,22.147 C34.377,22.147 34.306,22.076 34.306,21.989 L34.306,9.249 C34.306,9.164 34.377,9.092 34.465,9.092 L36.254,9.092 C36.341,9.092 36.412,9.164 36.412,9.249 L36.412,9.813 L36.446,9.782 C37.030,9.223 37.689,8.985 38.652,8.985 C39.591,8.985 40.440,9.296 40.982,9.837 C41.917,10.774 42.048,12.284 42.048,13.777 C42.048,15.207 41.920,16.796 40.982,17.735 C40.440,18.277 39.597,18.588 38.668,18.588 ZM38.185,10.931 C36.744,10.931 36.449,12.067 36.449,13.777 C36.449,15.497 36.744,16.642 38.185,16.642 C39.615,16.642 39.904,15.497 39.904,13.777 C39.904,12.019 39.617,10.931 38.185,10.931 ZM31.354,18.479 C31.268,18.479 31.197,18.408 31.197,18.320 L31.197,17.857 L31.163,17.885 C30.558,18.385 29.913,18.590 28.939,18.590 C27.797,18.590 26.986,18.310 26.393,17.717 C25.902,17.209 25.633,16.475 25.633,15.655 C25.633,13.946 26.894,12.884 28.922,12.884 L31.159,12.884 L31.159,12.400 C31.159,11.306 30.630,10.862 29.333,10.862 C28.406,10.862 27.953,11.057 27.472,11.674 C27.446,11.710 27.404,11.732 27.359,11.736 C27.315,11.738 27.269,11.722 27.239,11.693 L26.040,10.565 C25.978,10.509 25.974,10.412 26.029,10.346 C26.880,9.353 27.794,8.985 29.405,8.985 C31.953,8.985 33.303,10.117 33.303,12.256 L33.303,18.320 C33.303,18.408 33.229,18.479 33.144,18.479 L31.354,18.479 ZM31.159,14.473 L31.140,14.473 L29.189,14.473 C28.519,14.473 27.720,14.670 27.720,15.620 C27.720,16.379 28.213,16.749 29.227,16.749 C29.968,16.749 30.397,16.678 30.812,16.277 C31.049,16.041 31.159,15.649 31.159,15.046 L31.159,14.473 ZM20.199,10.758 C21.649,10.973 21.649,10.973 21.653,10.973 C22.814,11.149 23.527,11.436 24.109,11.959 C24.824,12.581 25.200,13.527 25.200,14.689 C25.200,17.057 23.339,18.588 20.463,18.588 C18.418,18.588 17.035,18.070 15.840,16.859 C15.813,16.830 15.795,16.786 15.795,16.745 C15.795,16.702 15.813,16.662 15.843,16.635 L17.131,15.361 C17.193,15.301 17.295,15.301 17.354,15.364 C18.186,16.195 19.094,16.533 20.495,16.533 C22.068,16.533 22.969,15.881 22.969,14.744 C22.969,14.216 22.812,13.799 22.517,13.535 C22.218,13.252 21.927,13.144 21.208,13.040 L19.708,12.825 C18.658,12.682 17.792,12.315 17.205,11.764 C16.546,11.143 16.224,10.308 16.224,9.215 C16.224,6.848 17.959,5.320 20.642,5.320 C22.370,5.320 23.584,5.765 24.704,6.810 C24.734,6.840 24.751,6.882 24.754,6.924 C24.755,6.967 24.736,7.008 24.708,7.039 L23.470,8.255 C23.410,8.315 23.313,8.318 23.251,8.256 C22.569,7.607 21.746,7.318 20.586,7.318 C19.272,7.318 18.419,8.034 18.419,9.145 C18.419,9.594 18.566,9.951 18.850,10.207 C19.150,10.471 19.639,10.674 20.199,10.758 ZM10.651,18.979 L8.329,18.978 C7.212,18.978 6.186,19.828 6.186,20.987 L6.185,23.459 C6.185,24.386 5.434,25.136 4.508,25.136 L2.171,25.136 C1.246,25.136 0.494,24.386 0.494,23.459 L0.494,21.137 C0.494,20.212 1.246,19.464 2.171,19.464 L4.660,19.464 C5.819,19.478 6.675,18.456 6.675,17.340 L6.674,14.818 C6.674,13.660 5.647,12.803 4.531,12.803 L2.171,12.803 C1.246,12.803 0.494,12.053 0.494,11.129 L0.494,8.789 C0.494,7.864 1.246,7.119 2.171,7.119 L4.638,7.119 C5.796,7.119 6.653,6.093 6.653,4.978 L6.653,2.632 C6.653,1.706 7.404,0.957 8.329,0.957 L10.651,0.957 C11.576,0.957 12.325,1.706 12.325,2.632 L12.325,4.954 C12.325,5.879 11.576,6.616 10.651,6.616 L8.306,6.609 C7.189,6.609 6.163,7.466 6.163,8.624 L6.161,11.152 C6.161,12.268 7.013,13.295 8.171,13.295 L10.651,13.295 C11.576,13.295 12.325,14.039 12.325,14.965 L12.325,17.304 C12.325,18.229 11.576,18.979 10.651,18.979 ZM44.821,9.093 C44.911,9.093 44.981,9.164 44.981,9.250 L44.981,18.321 C44.981,18.407 44.911,18.480 44.821,18.480 L42.996,18.480 C42.906,18.480 42.835,18.407 42.835,18.321 L42.835,9.250 C42.835,9.164 42.906,9.093 42.996,9.093 L44.821,9.093 ZM81.248,9.110 C81.336,9.110 81.405,9.181 81.405,9.268 L81.405,18.337 C81.405,18.423 81.336,18.496 81.248,18.496 L79.422,18.496 C79.332,18.496 79.259,18.423 79.259,18.337 L79.259,9.268 C79.259,9.181 79.332,9.110 79.422,9.110 L81.248,9.110 Z" class="cls-1"/>
</svg>
